<?xml version="1.0" encoding="utf-8"?>
<!-- Generator: Adobe Illustrator 21.1.0, SVG Export Plug-In . SVG Version: 6.00 Build 0)  -->
<svg version="1.1" id="Layer_1" xmlns="http://www.w3.org/2000/svg" xmlns:xlink="http://www.w3.org/1999/xlink" x="0px" y="0px"
	 viewBox="0 0 190 46" style="enable-background:new 0 0 190 46;" xml:space="preserve">
<style type="text/css">
	.st0{fill:url(#SVGID_1_);}
	.st1{fill:url(#SVGID_2_);}
	.st2{fill:#515151;}
</style>
<g>
	
		<linearGradient id="SVGID_1_" gradientUnits="userSpaceOnUse" x1="7.1412" y1="1324.9224" x2="27.3878" y2="1337.2806" gradientTransform="matrix(1 0 0 1 0 -1316.7791)">
		<stop  offset="0" style="stop-color:#F1B94F"/>
		<stop  offset="1" style="stop-color:#FADB2E"/>
	</linearGradient>
	<polygon class="st0" points="34.1,23.1 11.4,23.1 1.3,5.1 22.4,5.1 	"/>
	
		<linearGradient id="SVGID_2_" gradientUnits="userSpaceOnUse" x1="6.9871" y1="-813.6508" x2="27.516" y2="-801.1201" gradientTransform="matrix(1 0 0 -1 0 -775)">
		<stop  offset="0" style="stop-color:#3D434E"/>
		<stop  offset="1" style="stop-color:#72706B"/>
	</linearGradient>
	<polygon class="st1" points="34.1,23.1 11.4,23.1 1.3,42.1 22.4,42.1 	"/>
</g>
<g>
	<path class="st2" d="M41.7,31.6V14.1h-2.1v-3.6h10.1c2.1,0,3.9,0.5,5.2,1.6s2,2.5,2,4.4c0,1.2-0.3,2.2-0.8,3.1s-1.2,1.5-2,1.9v0.1
		c1.2,0.4,2.1,1,2.8,2.1c0.6,1,1,2.2,1,3.4c0,2.2-0.8,3.9-2.3,5s-3.4,1.7-5.8,1.7H44c-0.8,0-1.3-0.2-1.7-0.5
		C41.9,32.9,41.7,32.4,41.7,31.6z M46,20h3.7c0.9,0,1.6-0.3,2.1-0.8c0.5-0.6,0.8-1.3,0.8-2.2s-0.3-1.6-0.8-2.1s-1.2-0.8-2.2-0.8H46
		V20z M46,29.4c0,0.5,0.2,0.7,0.7,0.7H50c1,0,1.8-0.3,2.4-0.9c0.6-0.6,0.9-1.4,0.9-2.4S53,25,52.4,24.4S51,23.5,50,23.5h-4V29.4z"/>
	<path class="st2" d="M60.2,25.4c0-2.6,0.8-4.7,2.4-6.3c1.6-1.6,3.6-2.4,6.1-2.4c2.3,0,4.1,0.8,5.5,2.2c1.3,1.5,2,3.4,2,5.7
		l-0.1,1.5H64.5c0.2,1.4,0.7,2.5,1.6,3.3s2.1,1.2,3.4,1.2c0.8,0,1.6-0.2,2.4-0.5s1.4-0.6,1.7-0.9l0.6-0.5l1.7,2.9
		c-0.1,0.1-0.2,0.2-0.3,0.3s-0.4,0.3-0.9,0.6c-0.4,0.3-0.9,0.5-1.4,0.8c-0.5,0.2-1.1,0.4-1.9,0.6c-0.8,0.2-1.5,0.3-2.3,0.3
		c-2.7,0-4.9-0.8-6.5-2.5C61,30,60.2,27.9,60.2,25.4z M64.6,23.3h7.3c0-1-0.3-1.8-0.9-2.4s-1.3-1-2.2-1c-1.1,0-2,0.3-2.7,0.9
		C65.3,21.4,64.9,22.2,64.6,23.3z"/>
	<path class="st2" d="M78.5,25.4c0-2.6,0.8-4.7,2.4-6.3s3.6-2.4,6.1-2.4c2.3,0,4.1,0.8,5.5,2.2c1.3,1.5,2,3.4,2,5.7l-0.1,1.5H82.8
		c0.2,1.4,0.7,2.5,1.6,3.3s2.1,1.2,3.4,1.2c0.8,0,1.6-0.2,2.4-0.5s1.4-0.6,1.7-0.9l0.6-0.5l1.7,2.9c-0.1,0.1-0.2,0.2-0.3,0.3
		s-0.4,0.3-0.9,0.6c-0.4,0.3-0.9,0.5-1.4,0.8c-0.5,0.2-1.1,0.4-1.9,0.6c-0.8,0.2-1.5,0.3-2.3,0.3c-2.7,0-4.9-0.8-6.5-2.5
		C79.3,30,78.5,27.9,78.5,25.4z M82.9,23.3h7.3c0-1-0.3-1.8-0.9-2.4s-1.3-1-2.2-1c-1.1,0-2,0.3-2.7,0.9
		C83.6,21.4,83.2,22.2,82.9,23.3z"/>
	<path class="st2" d="M98.3,33.8v-19c0-0.5-0.2-0.7-0.7-0.7h-1.3v-3.5h4c1.5,0,2.2,0.7,2.2,2.2v5.9l-0.1,1.4h0.1
		c0.4-0.9,1.2-1.7,2.2-2.3c1-0.7,2.2-1,3.6-1c3.9,0,5.8,2.1,5.8,6.4v6.5c0,0.5,0.2,0.7,0.7,0.7h1.3v3.5h-4c-0.8,0-1.3-0.2-1.7-0.5
		c-0.4-0.4-0.5-0.9-0.5-1.7V24c0-1.1-0.2-2-0.6-2.5c-0.4-0.6-1.1-0.9-2.1-0.9c-1.1,0-2,0.3-2.8,1c-0.8,0.6-1.4,1.5-1.7,2.5
		c-0.2,0.6-0.3,1.3-0.3,2.2V34h-4.1V33.8z"/>
	<path class="st2" d="M119.6,31.6V21.3c0-0.5-0.2-0.7-0.7-0.7h-1.3v-3.5h4c0.8,0,1.3,0.2,1.7,0.5c0.3,0.4,0.5,0.9,0.5,1.7v10.3
		c0,0.5,0.2,0.7,0.7,0.7h1.3v3.5h-4c-0.8,0-1.3-0.2-1.7-0.5C119.8,32.9,119.6,32.4,119.6,31.6z M119.8,14.3v-3.8h3.6v3.8H119.8z"/>
	<path class="st2" d="M132.9,33.8l-4.8-12.6c-0.2-0.4-0.5-0.6-0.9-0.6h-0.4v-3.5h2.4c0.7,0,1.2,0.1,1.6,0.4c0.4,0.2,0.7,0.6,0.9,1.2
		l3.2,8.8l0.6,2.4h0.1c0.2-0.9,0.4-1.7,0.6-2.4l3.2-8.8c0.2-0.6,0.5-1,0.9-1.2s0.9-0.4,1.6-0.4h2.2v3.5h-0.5c-0.5,0-0.8,0.2-0.9,0.6
		l-4.8,12.6C137.9,33.8,132.9,33.8,132.9,33.8z"/>
	<path class="st2" d="M145,25.4c0-2.6,0.8-4.7,2.4-6.3c1.6-1.6,3.6-2.4,6.1-2.4c2.3,0,4.1,0.8,5.5,2.2c1.3,1.5,2,3.4,2,5.7l-0.1,1.5
		h-11.6c0.2,1.4,0.7,2.5,1.6,3.3c0.9,0.8,2.1,1.2,3.4,1.2c0.8,0,1.6-0.2,2.4-0.5s1.4-0.6,1.7-0.9l0.6-0.5l1.7,2.9
		c-0.1,0.1-0.2,0.2-0.3,0.3c-0.1,0.1-0.4,0.3-0.9,0.6c-0.4,0.3-0.9,0.5-1.4,0.8c-0.5,0.2-1.1,0.4-1.9,0.6s-1.5,0.3-2.3,0.3
		c-2.7,0-4.9-0.8-6.5-2.5C145.9,30,145,27.9,145,25.4z M149.4,23.3h7.3c0-1-0.3-1.8-0.9-2.4c-0.6-0.6-1.3-1-2.2-1
		c-1.1,0-2,0.3-2.7,0.9C150.2,21.4,149.7,22.2,149.4,23.3z"/>
	<path class="st2" d="M164.9,31.6V14.8c0-0.5-0.2-0.7-0.7-0.7h-1.3v-3.5h4c1.5,0,2.2,0.7,2.2,2.2v16.8c0,0.5,0.2,0.7,0.7,0.7h1.3
		v3.5h-3.9c-0.8,0-1.4-0.2-1.7-0.5C165.1,32.9,164.9,32.4,164.9,31.6z"/>
	<path class="st2" d="M173.5,36c0.7,0.8,1.5,1.1,2.4,1.1c1.2,0,2.2-0.7,2.8-2.1l0.6-1.3l-5.7-12.5c-0.2-0.4-0.4-0.6-0.9-0.6h-0.5
		v-3.5h2.8c0.6,0,1.1,0.1,1.4,0.4c0.3,0.2,0.6,0.6,0.8,1.2l3.3,8.4l0.6,2.2h0.1c0.2-0.9,0.4-1.7,0.6-2.2l2.9-8.4
		c0.3-1.1,1.1-1.6,2.2-1.6h2.8v3.5h-0.5c-0.5,0-0.8,0.2-1,0.6l-6,15.1c-0.6,1.4-1.4,2.5-2.5,3.3c-1.1,0.7-2.3,1.1-3.6,1.1
		c-0.8,0-1.5-0.1-2.2-0.4s-1.2-0.6-1.5-0.9l-0.5-0.4L173.5,36z"/>
</g>
</svg>
